<?xml version="1.0" encoding="UTF-8" standalone="no"?>
<!DOCTYPE svg PUBLIC "-//W3C//DTD SVG 1.1//EN"
 "http://www.w3.org/Graphics/SVG/1.1/DTD/svg11.dtd">
<!-- Generated by graphviz version 2.47.0 (20210316.0004)
 -->
<!-- Title: dependencies Pages: 1 -->
<svg width="1733pt" height="284pt"
 viewBox="0.00 0.00 1733.00 284.00" xmlns="http://www.w3.org/2000/svg" xmlns:xlink="http://www.w3.org/1999/xlink">
<g id="graph0" class="graph" transform="scale(1 1) rotate(0) translate(4 280)">
<title>dependencies</title>
<polygon fill="white" stroke="transparent" points="-4,4 -4,-280 1729,-280 1729,4 -4,4"/>
<text text-anchor="start" x="841.51" y="-42.4" font-family="sans-serif" font-weight="bold" font-size="14.00">Legend</text>
<polygon fill="#ffffb3" stroke="transparent" points="628.5,-10 628.5,-30 648.5,-30 648.5,-10 628.5,-10"/>
<text text-anchor="start" x="652.13" y="-15.4" font-family="sans-serif" font-size="14.00"> &#160;Declarations</text>
<polygon fill="#8dd3c7" stroke="transparent" points="741.5,-10 741.5,-30 761.5,-30 761.5,-10 741.5,-10"/>
<text text-anchor="start" x="765.23" y="-15.4" font-family="sans-serif" font-size="14.00"> &#160;Module</text>
<polygon fill="#80b1d3" stroke="transparent" points="827.5,-10 827.5,-30 847.5,-30 847.5,-10 827.5,-10"/>
<text text-anchor="start" x="851.28" y="-15.4" font-family="sans-serif" font-size="14.00"> &#160;Bootstrap</text>
<polygon fill="#fdb462" stroke="transparent" points="924.5,-10 924.5,-30 944.5,-30 944.5,-10 924.5,-10"/>
<text text-anchor="start" x="948.17" y="-15.4" font-family="sans-serif" font-size="14.00"> &#160;Providers</text>
<polygon fill="#fb8072" stroke="transparent" points="1020.5,-10 1020.5,-30 1040.5,-30 1040.5,-10 1020.5,-10"/>
<text text-anchor="start" x="1044.23" y="-15.4" font-family="sans-serif" font-size="14.00"> &#160;Exports</text>
<g id="clust1" class="cluster">
<title>cluster_InfoQuadraModule</title>
<polygon fill="none" stroke="black" stroke-dasharray="1,5" points="8,-70 8,-268 1717,-268 1717,-70 8,-70"/>
</g>
<g id="clust10" class="cluster">
<title>cluster_InfoQuadraModule_imports</title>
<polygon fill="none" stroke="black" points="1485,-78 1485,-130 1709,-130 1709,-78 1485,-78"/>
</g>
<g id="clust11" class="cluster">
<title>cluster_InfoQuadraModule_exports</title>
<polygon fill="none" stroke="black" points="219,-208 219,-260 1704,-260 1704,-208 219,-208"/>
</g>
<g id="clust2" class="cluster">
<title>cluster_InfoQuadraModule_declarations</title>
<polygon fill="none" stroke="black" points="16,-78 16,-130 1477,-130 1477,-78 16,-78"/>
</g>
<!-- AtualizarHorarioQuadraComponent -->
<g id="node1" class="node">
<title>AtualizarHorarioQuadraComponent</title>
<polygon fill="#ffffb3" stroke="black" points="1469.14,-122 1250.86,-122 1250.86,-86 1469.14,-86 1469.14,-122"/>
<text text-anchor="middle" x="1360" y="-99.8" font-family="Times,serif" font-size="14.00">AtualizarHorarioQuadraComponent</text>
</g>
<!-- InfoQuadraModule -->
<g id="node8" class="node">
<title>InfoQuadraModule</title>
<polygon fill="#8dd3c7" stroke="black" points="970.07,-187 967.07,-191 946.07,-191 943.07,-187 845.93,-187 845.93,-151 970.07,-151 970.07,-187"/>
<text text-anchor="middle" x="908" y="-164.8" font-family="Times,serif" font-size="14.00">InfoQuadraModule</text>
</g>
<!-- AtualizarHorarioQuadraComponent&#45;&gt;InfoQuadraModule -->
<g id="edge1" class="edge">
<title>AtualizarHorarioQuadraComponent&#45;&gt;InfoQuadraModule</title>
<path fill="none" stroke="black" d="M1319.41,-122.03C1319.41,-138.4 1319.41,-160 1319.41,-160 1319.41,-160 980.04,-160 980.04,-160"/>
<polygon fill="black" stroke="black" points="980.04,-156.5 970.04,-160 980.04,-163.5 980.04,-156.5"/>
</g>
<!-- ExcluirHorarioQuadraComponent -->
<g id="node2" class="node">
<title>ExcluirHorarioQuadraComponent</title>
<polygon fill="#ffffb3" stroke="black" points="1232.77,-122 1025.23,-122 1025.23,-86 1232.77,-86 1232.77,-122"/>
<text text-anchor="middle" x="1129" y="-99.8" font-family="Times,serif" font-size="14.00">ExcluirHorarioQuadraComponent</text>
</g>
<!-- ExcluirHorarioQuadraComponent&#45;&gt;InfoQuadraModule -->
<g id="edge2" class="edge">
<title>ExcluirHorarioQuadraComponent&#45;&gt;InfoQuadraModule</title>
<path fill="none" stroke="black" d="M1093.3,-122.19C1093.3,-137.18 1093.3,-156 1093.3,-156 1093.3,-156 980.22,-156 980.22,-156"/>
<polygon fill="black" stroke="black" points="980.22,-152.5 970.22,-156 980.22,-159.5 980.22,-152.5"/>
</g>
<!-- ListarHorarioQuadraComponent -->
<g id="node3" class="node">
<title>ListarHorarioQuadraComponent</title>
<polygon fill="#ffffb3" stroke="black" points="1007.22,-122 808.78,-122 808.78,-86 1007.22,-86 1007.22,-122"/>
<text text-anchor="middle" x="908" y="-99.8" font-family="Times,serif" font-size="14.00">ListarHorarioQuadraComponent</text>
</g>
<!-- ListarHorarioQuadraComponent&#45;&gt;InfoQuadraModule -->
<g id="edge3" class="edge">
<title>ListarHorarioQuadraComponent&#45;&gt;InfoQuadraModule</title>
<path fill="none" stroke="black" d="M908,-122.11C908,-122.11 908,-140.99 908,-140.99"/>
<polygon fill="black" stroke="black" points="904.5,-140.99 908,-150.99 911.5,-140.99 904.5,-140.99"/>
</g>
<!-- NovoHorarioQuadraComponent -->
<g id="node4" class="node">
<title>NovoHorarioQuadraComponent</title>
<polygon fill="#ffffb3" stroke="black" points="790.67,-122 593.33,-122 593.33,-86 790.67,-86 790.67,-122"/>
<text text-anchor="middle" x="692" y="-99.8" font-family="Times,serif" font-size="14.00">NovoHorarioQuadraComponent</text>
</g>
<!-- NovoHorarioQuadraComponent&#45;&gt;InfoQuadraModule -->
<g id="edge4" class="edge">
<title>NovoHorarioQuadraComponent&#45;&gt;InfoQuadraModule</title>
<path fill="none" stroke="black" d="M668.93,-122.19C668.93,-137.18 668.93,-156 668.93,-156 668.93,-156 835.81,-156 835.81,-156"/>
<polygon fill="black" stroke="black" points="835.81,-159.5 845.81,-156 835.81,-152.5 835.81,-159.5"/>
</g>
<!-- ParticiparQuadraComponent -->
<g id="node5" class="node">
<title>ParticiparQuadraComponent</title>
<polygon fill="#ffffb3" stroke="black" points="575.45,-122 398.55,-122 398.55,-86 575.45,-86 575.45,-122"/>
<text text-anchor="middle" x="487" y="-99.8" font-family="Times,serif" font-size="14.00">ParticiparQuadraComponent</text>
</g>
<!-- ParticiparQuadraComponent&#45;&gt;InfoQuadraModule -->
<g id="edge5" class="edge">
<title>ParticiparQuadraComponent&#45;&gt;InfoQuadraModule</title>
<path fill="none" stroke="black" d="M508.59,-122.03C508.59,-138.4 508.59,-160 508.59,-160 508.59,-160 835.59,-160 835.59,-160"/>
<polygon fill="black" stroke="black" points="835.59,-163.5 845.59,-160 835.59,-156.5 835.59,-163.5"/>
</g>
<!-- SairQuadraComponent -->
<g id="node6" class="node">
<title>SairQuadraComponent</title>
<polygon fill="#ffffb3" stroke="black" points="380.58,-122 235.42,-122 235.42,-86 380.58,-86 380.58,-122"/>
<text text-anchor="middle" x="308" y="-99.8" font-family="Times,serif" font-size="14.00">SairQuadraComponent</text>
</g>
<!-- SairQuadraComponent&#45;&gt;InfoQuadraModule -->
<g id="edge6" class="edge">
<title>SairQuadraComponent&#45;&gt;InfoQuadraModule</title>
<path fill="none" stroke="black" d="M308,-122.3C308,-140.27 308,-165 308,-165 308,-165 835.77,-165 835.77,-165"/>
<polygon fill="black" stroke="black" points="835.77,-168.5 845.77,-165 835.77,-161.5 835.77,-168.5"/>
</g>
<!-- UnidadeInfoQuadraComponent -->
<g id="node7" class="node">
<title>UnidadeInfoQuadraComponent</title>
<polygon fill="#ffffb3" stroke="black" points="217.78,-122 24.22,-122 24.22,-86 217.78,-86 217.78,-122"/>
<text text-anchor="middle" x="121" y="-99.8" font-family="Times,serif" font-size="14.00">UnidadeInfoQuadraComponent</text>
</g>
<!-- UnidadeInfoQuadraComponent&#45;&gt;InfoQuadraModule -->
<g id="edge7" class="edge">
<title>UnidadeInfoQuadraComponent&#45;&gt;InfoQuadraModule</title>
<path fill="none" stroke="black" d="M121,-122.11C121,-141.34 121,-169 121,-169 121,-169 835.92,-169 835.92,-169"/>
<polygon fill="black" stroke="black" points="835.92,-172.5 845.92,-169 835.92,-165.5 835.92,-172.5"/>
</g>
<!-- AtualizarHorarioQuadraComponent  -->
<g id="node11" class="node">
<title>AtualizarHorarioQuadraComponent </title>
<polygon fill="#fb8072" stroke="black" points="1695.64,-252 1474.36,-252 1474.36,-216 1695.64,-216 1695.64,-252"/>
<text text-anchor="middle" x="1585" y="-229.8" font-family="Times,serif" font-size="14.00">AtualizarHorarioQuadraComponent </text>
</g>
<!-- InfoQuadraModule&#45;&gt;AtualizarHorarioQuadraComponent  -->
<g id="edge10" class="edge">
<title>InfoQuadraModule&#45;&gt;AtualizarHorarioQuadraComponent </title>
<path fill="none" stroke="black" stroke-dasharray="5,2" d="M970.15,-174C1118.99,-174 1483.62,-174 1483.62,-174 1483.62,-174 1483.62,-206 1483.62,-206"/>
<polygon fill="black" stroke="black" points="1480.12,-206 1483.62,-216 1487.12,-206 1480.12,-206"/>
</g>
<!-- ExcluirHorarioQuadraComponent  -->
<g id="node12" class="node">
<title>ExcluirHorarioQuadraComponent </title>
<polygon fill="#fb8072" stroke="black" points="1456.27,-252 1245.73,-252 1245.73,-216 1456.27,-216 1456.27,-252"/>
<text text-anchor="middle" x="1351" y="-229.8" font-family="Times,serif" font-size="14.00">ExcluirHorarioQuadraComponent </text>
</g>
<!-- InfoQuadraModule&#45;&gt;ExcluirHorarioQuadraComponent  -->
<g id="edge11" class="edge">
<title>InfoQuadraModule&#45;&gt;ExcluirHorarioQuadraComponent </title>
<path fill="none" stroke="black" stroke-dasharray="5,2" d="M970.25,-178C1100.1,-178 1387.9,-178 1387.9,-178 1387.9,-178 1387.9,-205.97 1387.9,-205.97"/>
<polygon fill="black" stroke="black" points="1384.4,-205.97 1387.9,-215.97 1391.4,-205.97 1384.4,-205.97"/>
</g>
<!-- ListarHorarioQuadraComponent  -->
<g id="node13" class="node">
<title>ListarHorarioQuadraComponent </title>
<polygon fill="#fb8072" stroke="black" points="1228.22,-252 1025.78,-252 1025.78,-216 1228.22,-216 1228.22,-252"/>
<text text-anchor="middle" x="1127" y="-229.8" font-family="Times,serif" font-size="14.00">ListarHorarioQuadraComponent </text>
</g>
<!-- InfoQuadraModule&#45;&gt;ListarHorarioQuadraComponent  -->
<g id="edge12" class="edge">
<title>InfoQuadraModule&#45;&gt;ListarHorarioQuadraComponent </title>
<path fill="none" stroke="black" stroke-dasharray="5,2" d="M970.14,-183C1044.96,-183 1160.7,-183 1160.7,-183 1160.7,-183 1160.7,-205.88 1160.7,-205.88"/>
<polygon fill="black" stroke="black" points="1157.2,-205.88 1160.7,-215.88 1164.2,-205.88 1157.2,-205.88"/>
</g>
<!-- NovoHorarioQuadraComponent  -->
<g id="node14" class="node">
<title>NovoHorarioQuadraComponent </title>
<polygon fill="#fb8072" stroke="black" points="1008.17,-252 807.83,-252 807.83,-216 1008.17,-216 1008.17,-252"/>
<text text-anchor="middle" x="908" y="-229.8" font-family="Times,serif" font-size="14.00">NovoHorarioQuadraComponent </text>
</g>
<!-- InfoQuadraModule&#45;&gt;NovoHorarioQuadraComponent  -->
<g id="edge13" class="edge">
<title>InfoQuadraModule&#45;&gt;NovoHorarioQuadraComponent </title>
<path fill="none" stroke="black" stroke-dasharray="5,2" d="M908,-187.11C908,-187.11 908,-205.99 908,-205.99"/>
<polygon fill="black" stroke="black" points="904.5,-205.99 908,-215.99 911.5,-205.99 904.5,-205.99"/>
</g>
<!-- ParticiparQuadraComponent  -->
<g id="node15" class="node">
<title>ParticiparQuadraComponent </title>
<polygon fill="#fb8072" stroke="black" points="789.45,-252 608.55,-252 608.55,-216 789.45,-216 789.45,-252"/>
<text text-anchor="middle" x="699" y="-229.8" font-family="Times,serif" font-size="14.00">ParticiparQuadraComponent </text>
</g>
<!-- InfoQuadraModule&#45;&gt;ParticiparQuadraComponent  -->
<g id="edge14" class="edge">
<title>InfoQuadraModule&#45;&gt;ParticiparQuadraComponent </title>
<path fill="none" stroke="black" stroke-dasharray="5,2" d="M845.92,-183C794.24,-183 729.07,-183 729.07,-183 729.07,-183 729.07,-205.88 729.07,-205.88"/>
<polygon fill="black" stroke="black" points="725.57,-205.88 729.07,-215.88 732.57,-205.88 725.57,-205.88"/>
</g>
<!-- SairQuadraComponent  -->
<g id="node16" class="node">
<title>SairQuadraComponent </title>
<polygon fill="#fb8072" stroke="black" points="590.08,-252 441.92,-252 441.92,-216 590.08,-216 590.08,-252"/>
<text text-anchor="middle" x="516" y="-229.8" font-family="Times,serif" font-size="14.00">SairQuadraComponent </text>
</g>
<!-- InfoQuadraModule&#45;&gt;SairQuadraComponent  -->
<g id="edge15" class="edge">
<title>InfoQuadraModule&#45;&gt;SairQuadraComponent </title>
<path fill="none" stroke="black" stroke-dasharray="5,2" d="M845.7,-178C751.29,-178 582.88,-178 582.88,-178 582.88,-178 582.88,-205.97 582.88,-205.97"/>
<polygon fill="black" stroke="black" points="579.38,-205.97 582.88,-215.97 586.38,-205.97 579.38,-205.97"/>
</g>
<!-- UnidadeInfoQuadraComponent  -->
<g id="node17" class="node">
<title>UnidadeInfoQuadraComponent </title>
<polygon fill="#fb8072" stroke="black" points="423.28,-252 226.72,-252 226.72,-216 423.28,-216 423.28,-252"/>
<text text-anchor="middle" x="325" y="-229.8" font-family="Times,serif" font-size="14.00">UnidadeInfoQuadraComponent </text>
</g>
<!-- InfoQuadraModule&#45;&gt;UnidadeInfoQuadraComponent  -->
<g id="edge16" class="edge">
<title>InfoQuadraModule&#45;&gt;UnidadeInfoQuadraComponent </title>
<path fill="none" stroke="black" stroke-dasharray="5,2" d="M845.8,-174C712.43,-174 410.96,-174 410.96,-174 410.96,-174 410.96,-206 410.96,-206"/>
<polygon fill="black" stroke="black" points="407.46,-206 410.96,-216 414.46,-206 407.46,-206"/>
</g>
<!-- RaizModule -->
<g id="node9" class="node">
<title>RaizModule</title>
<polygon fill="#8dd3c7" stroke="black" points="1700.71,-122 1697.71,-126 1676.71,-126 1673.71,-122 1615.29,-122 1615.29,-86 1700.71,-86 1700.71,-122"/>
<text text-anchor="middle" x="1658" y="-99.8" font-family="Times,serif" font-size="14.00">RaizModule</text>
</g>
<!-- RaizModule&#45;&gt;InfoQuadraModule -->
<g id="edge8" class="edge">
<title>RaizModule&#45;&gt;InfoQuadraModule</title>
<path fill="none" stroke="black" d="M1655.61,-122.11C1655.61,-141.34 1655.61,-169 1655.61,-169 1655.61,-169 980.14,-169 980.14,-169"/>
<polygon fill="black" stroke="black" points="980.14,-165.5 970.14,-169 980.14,-172.5 980.14,-165.5"/>
</g>
<!-- UsuarioModule -->
<g id="node10" class="node">
<title>UsuarioModule</title>
<polygon fill="#8dd3c7" stroke="black" points="1596.87,-122 1593.87,-126 1572.87,-126 1569.87,-122 1493.13,-122 1493.13,-86 1596.87,-86 1596.87,-122"/>
<text text-anchor="middle" x="1545" y="-99.8" font-family="Times,serif" font-size="14.00">UsuarioModule</text>
</g>
<!-- UsuarioModule&#45;&gt;InfoQuadraModule -->
<g id="edge9" class="edge">
<title>UsuarioModule&#45;&gt;InfoQuadraModule</title>
<path fill="none" stroke="black" d="M1545,-122.3C1545,-140.27 1545,-165 1545,-165 1545,-165 980.24,-165 980.24,-165"/>
<polygon fill="black" stroke="black" points="980.24,-161.5 970.24,-165 980.24,-168.5 980.24,-161.5"/>
</g>
</g>
</svg>
