<?xml version="1.0" encoding="UTF-8" standalone="no"?>
<!DOCTYPE svg PUBLIC "-//W3C//DTD SVG 1.1//EN"
 "http://www.w3.org/Graphics/SVG/1.1/DTD/svg11.dtd">
<!-- Generated by graphviz version 2.47.0 (20210316.0004)
 -->
<!-- Title: dependencies Pages: 1 -->
<svg width="1301pt" height="284pt"
 viewBox="0.00 0.00 1301.00 284.00" xmlns="http://www.w3.org/2000/svg" xmlns:xlink="http://www.w3.org/1999/xlink">
<g id="graph0" class="graph" transform="scale(1 1) rotate(0) translate(4 280)">
<title>dependencies</title>
<polygon fill="white" stroke="transparent" points="-4,4 -4,-280 1297,-280 1297,4 -4,4"/>
<text text-anchor="start" x="625.51" y="-42.4" font-family="sans-serif" font-weight="bold" font-size="14.00">Legend</text>
<polygon fill="#ffffb3" stroke="transparent" points="412.5,-10 412.5,-30 432.5,-30 432.5,-10 412.5,-10"/>
<text text-anchor="start" x="436.13" y="-15.4" font-family="sans-serif" font-size="14.00"> &#160;Declarations</text>
<polygon fill="#8dd3c7" stroke="transparent" points="525.5,-10 525.5,-30 545.5,-30 545.5,-10 525.5,-10"/>
<text text-anchor="start" x="549.23" y="-15.4" font-family="sans-serif" font-size="14.00"> &#160;Module</text>
<polygon fill="#80b1d3" stroke="transparent" points="611.5,-10 611.5,-30 631.5,-30 631.5,-10 611.5,-10"/>
<text text-anchor="start" x="635.28" y="-15.4" font-family="sans-serif" font-size="14.00"> &#160;Bootstrap</text>
<polygon fill="#fdb462" stroke="transparent" points="708.5,-10 708.5,-30 728.5,-30 728.5,-10 708.5,-10"/>
<text text-anchor="start" x="732.17" y="-15.4" font-family="sans-serif" font-size="14.00"> &#160;Providers</text>
<polygon fill="#fb8072" stroke="transparent" points="804.5,-10 804.5,-30 824.5,-30 824.5,-10 804.5,-10"/>
<text text-anchor="start" x="828.23" y="-15.4" font-family="sans-serif" font-size="14.00"> &#160;Exports</text>
<g id="clust1" class="cluster">
<title>cluster_UsuarioModule</title>
<polygon fill="none" stroke="black" stroke-dasharray="1,5" points="8,-70 8,-268 1285,-268 1285,-70 8,-70"/>
</g>
<g id="clust2" class="cluster">
<title>cluster_UsuarioModule_declarations</title>
<polygon fill="none" stroke="black" points="126,-78 126,-130 1277,-130 1277,-78 126,-78"/>
</g>
<g id="clust9" class="cluster">
<title>cluster_UsuarioModule_imports</title>
<polygon fill="none" stroke="black" points="16,-78 16,-130 118,-130 118,-78 16,-78"/>
</g>
<g id="clust10" class="cluster">
<title>cluster_UsuarioModule_exports</title>
<polygon fill="none" stroke="black" points="61,-208 61,-260 1232,-260 1232,-208 61,-208"/>
</g>
<!-- CadastroComponent -->
<g id="node1" class="node">
<title>CadastroComponent</title>
<polygon fill="#ffffb3" stroke="black" points="1268.59,-122 1137.41,-122 1137.41,-86 1268.59,-86 1268.59,-122"/>
<text text-anchor="middle" x="1203" y="-99.8" font-family="Times,serif" font-size="14.00">CadastroComponent</text>
</g>
<!-- UsuarioModule -->
<g id="node7" class="node">
<title>UsuarioModule</title>
<polygon fill="#8dd3c7" stroke="black" points="788.87,-187 785.87,-191 764.87,-191 761.87,-187 685.13,-187 685.13,-151 788.87,-151 788.87,-187"/>
<text text-anchor="middle" x="737" y="-164.8" font-family="Times,serif" font-size="14.00">UsuarioModule</text>
</g>
<!-- CadastroComponent&#45;&gt;UsuarioModule -->
<g id="edge1" class="edge">
<title>CadastroComponent&#45;&gt;UsuarioModule</title>
<path fill="none" stroke="black" d="M1180.88,-122.11C1180.88,-141.34 1180.88,-169 1180.88,-169 1180.88,-169 799.22,-169 799.22,-169"/>
<polygon fill="black" stroke="black" points="799.22,-165.5 789.22,-169 799.22,-172.5 799.22,-165.5"/>
</g>
<!-- EditarContaComponent -->
<g id="node2" class="node">
<title>EditarContaComponent</title>
<polygon fill="#ffffb3" stroke="black" points="1119.48,-122 970.52,-122 970.52,-86 1119.48,-86 1119.48,-122"/>
<text text-anchor="middle" x="1045" y="-99.8" font-family="Times,serif" font-size="14.00">EditarContaComponent</text>
</g>
<!-- EditarContaComponent&#45;&gt;UsuarioModule -->
<g id="edge2" class="edge">
<title>EditarContaComponent&#45;&gt;UsuarioModule</title>
<path fill="none" stroke="black" d="M1020.88,-122.02C1020.88,-139.37 1020.88,-163 1020.88,-163 1020.88,-163 799.07,-163 799.07,-163"/>
<polygon fill="black" stroke="black" points="799.07,-159.5 789.07,-163 799.07,-166.5 799.07,-159.5"/>
</g>
<!-- LoginComponent -->
<g id="node3" class="node">
<title>LoginComponent</title>
<polygon fill="#ffffb3" stroke="black" points="952.28,-122 837.72,-122 837.72,-86 952.28,-86 952.28,-122"/>
<text text-anchor="middle" x="895" y="-99.8" font-family="Times,serif" font-size="14.00">LoginComponent</text>
</g>
<!-- LoginComponent&#45;&gt;UsuarioModule -->
<g id="edge3" class="edge">
<title>LoginComponent&#45;&gt;UsuarioModule</title>
<path fill="none" stroke="black" d="M869.38,-122.24C869.38,-137.57 869.38,-157 869.38,-157 869.38,-157 798.94,-157 798.94,-157"/>
<polygon fill="black" stroke="black" points="798.94,-153.5 788.94,-157 798.94,-160.5 798.94,-153.5"/>
</g>
<!-- OverViewUserComponent -->
<g id="node4" class="node">
<title>OverViewUserComponent</title>
<polygon fill="#ffffb3" stroke="black" points="820.06,-122 653.94,-122 653.94,-86 820.06,-86 820.06,-122"/>
<text text-anchor="middle" x="737" y="-99.8" font-family="Times,serif" font-size="14.00">OverViewUserComponent</text>
</g>
<!-- OverViewUserComponent&#45;&gt;UsuarioModule -->
<g id="edge4" class="edge">
<title>OverViewUserComponent&#45;&gt;UsuarioModule</title>
<path fill="none" stroke="black" d="M737,-122.11C737,-122.11 737,-140.99 737,-140.99"/>
<polygon fill="black" stroke="black" points="733.5,-140.99 737,-150.99 740.5,-140.99 733.5,-140.99"/>
</g>
<!-- PainelControleUsuarioJogadorComponent -->
<g id="node5" class="node">
<title>PainelControleUsuarioJogadorComponent</title>
<polygon fill="#ffffb3" stroke="black" points="635.96,-122 382.04,-122 382.04,-86 635.96,-86 635.96,-122"/>
<text text-anchor="middle" x="509" y="-99.8" font-family="Times,serif" font-size="14.00">PainelControleUsuarioJogadorComponent</text>
</g>
<!-- PainelControleUsuarioJogadorComponent&#45;&gt;UsuarioModule -->
<g id="edge5" class="edge">
<title>PainelControleUsuarioJogadorComponent&#45;&gt;UsuarioModule</title>
<path fill="none" stroke="black" d="M615.6,-122.24C615.6,-137.57 615.6,-157 615.6,-157 615.6,-157 674.81,-157 674.81,-157"/>
<polygon fill="black" stroke="black" points="674.81,-160.5 684.81,-157 674.81,-153.5 674.81,-160.5"/>
</g>
<!-- PainelControleUsuarioMqComponent -->
<g id="node6" class="node">
<title>PainelControleUsuarioMqComponent</title>
<polygon fill="#ffffb3" stroke="black" points="363.58,-122 134.42,-122 134.42,-86 363.58,-86 363.58,-122"/>
<text text-anchor="middle" x="249" y="-99.8" font-family="Times,serif" font-size="14.00">PainelControleUsuarioMqComponent</text>
</g>
<!-- PainelControleUsuarioMqComponent&#45;&gt;UsuarioModule -->
<g id="edge6" class="edge">
<title>PainelControleUsuarioMqComponent&#45;&gt;UsuarioModule</title>
<path fill="none" stroke="black" d="M341.41,-122.02C341.41,-139.37 341.41,-163 341.41,-163 341.41,-163 674.88,-163 674.88,-163"/>
<polygon fill="black" stroke="black" points="674.88,-166.5 684.88,-163 674.88,-159.5 674.88,-166.5"/>
</g>
<!-- CadastroComponent  -->
<g id="node9" class="node">
<title>CadastroComponent </title>
<polygon fill="#fb8072" stroke="black" points="1224.09,-252 1089.91,-252 1089.91,-216 1224.09,-216 1224.09,-252"/>
<text text-anchor="middle" x="1157" y="-229.8" font-family="Times,serif" font-size="14.00">CadastroComponent </text>
</g>
<!-- UsuarioModule&#45;&gt;CadastroComponent  -->
<g id="edge8" class="edge">
<title>UsuarioModule&#45;&gt;CadastroComponent </title>
<path fill="none" stroke="black" stroke-dasharray="5,2" d="M788.89,-175C890.22,-175 1104.6,-175 1104.6,-175 1104.6,-175 1104.6,-205.98 1104.6,-205.98"/>
<polygon fill="black" stroke="black" points="1101.1,-205.98 1104.6,-215.98 1108.1,-205.98 1101.1,-205.98"/>
</g>
<!-- EditarContaComponent  -->
<g id="node10" class="node">
<title>EditarContaComponent </title>
<polygon fill="#fb8072" stroke="black" points="1071.48,-252 918.52,-252 918.52,-216 1071.48,-216 1071.48,-252"/>
<text text-anchor="middle" x="995" y="-229.8" font-family="Times,serif" font-size="14.00">EditarContaComponent </text>
</g>
<!-- UsuarioModule&#45;&gt;EditarContaComponent  -->
<g id="edge9" class="edge">
<title>UsuarioModule&#45;&gt;EditarContaComponent </title>
<path fill="none" stroke="black" stroke-dasharray="5,2" d="M788.91,-181C847.75,-181 935.57,-181 935.57,-181 935.57,-181 935.57,-205.76 935.57,-205.76"/>
<polygon fill="black" stroke="black" points="932.07,-205.76 935.57,-215.76 939.07,-205.76 932.07,-205.76"/>
</g>
<!-- LoginComponent  -->
<g id="node11" class="node">
<title>LoginComponent </title>
<polygon fill="#fb8072" stroke="black" points="901.28,-252 782.72,-252 782.72,-216 901.28,-216 901.28,-252"/>
<text text-anchor="middle" x="842" y="-229.8" font-family="Times,serif" font-size="14.00">LoginComponent </text>
</g>
<!-- UsuarioModule&#45;&gt;LoginComponent  -->
<g id="edge10" class="edge">
<title>UsuarioModule&#45;&gt;LoginComponent </title>
<path fill="none" stroke="black" stroke-dasharray="5,2" d="M773.82,-187.11C773.82,-206.34 773.82,-234 773.82,-234 773.82,-234 774.71,-234 774.71,-234"/>
<polygon fill="black" stroke="black" points="772.73,-237.5 782.73,-234 772.73,-230.5 772.73,-237.5"/>
</g>
<!-- OverViewUserComponent  -->
<g id="node12" class="node">
<title>OverViewUserComponent </title>
<polygon fill="#fb8072" stroke="black" points="764.56,-252 595.44,-252 595.44,-216 764.56,-216 764.56,-252"/>
<text text-anchor="middle" x="680" y="-229.8" font-family="Times,serif" font-size="14.00">OverViewUserComponent </text>
</g>
<!-- UsuarioModule&#45;&gt;OverViewUserComponent  -->
<g id="edge11" class="edge">
<title>UsuarioModule&#45;&gt;OverViewUserComponent </title>
<path fill="none" stroke="black" stroke-dasharray="5,2" d="M724.92,-187.11C724.92,-187.11 724.92,-205.99 724.92,-205.99"/>
<polygon fill="black" stroke="black" points="721.42,-205.99 724.92,-215.99 728.42,-205.99 721.42,-205.99"/>
</g>
<!-- PainelControleUsuarioJogadorComponent  -->
<g id="node13" class="node">
<title>PainelControleUsuarioJogadorComponent </title>
<polygon fill="#fb8072" stroke="black" points="576.96,-252 319.04,-252 319.04,-216 576.96,-216 576.96,-252"/>
<text text-anchor="middle" x="448" y="-229.8" font-family="Times,serif" font-size="14.00">PainelControleUsuarioJogadorComponent </text>
</g>
<!-- UsuarioModule&#45;&gt;PainelControleUsuarioJogadorComponent  -->
<g id="edge12" class="edge">
<title>UsuarioModule&#45;&gt;PainelControleUsuarioJogadorComponent </title>
<path fill="none" stroke="black" stroke-dasharray="5,2" d="M684.87,-181C609.59,-181 479.38,-181 479.38,-181 479.38,-181 479.38,-205.76 479.38,-205.76"/>
<polygon fill="black" stroke="black" points="475.88,-205.76 479.38,-215.76 482.88,-205.76 475.88,-205.76"/>
</g>
<!-- PainelControleUsuarioMqComponent  -->
<g id="node14" class="node">
<title>PainelControleUsuarioMqComponent </title>
<polygon fill="#fb8072" stroke="black" points="301.08,-252 68.92,-252 68.92,-216 301.08,-216 301.08,-252"/>
<text text-anchor="middle" x="185" y="-229.8" font-family="Times,serif" font-size="14.00">PainelControleUsuarioMqComponent </text>
</g>
<!-- UsuarioModule&#45;&gt;PainelControleUsuarioMqComponent  -->
<g id="edge13" class="edge">
<title>UsuarioModule&#45;&gt;PainelControleUsuarioMqComponent </title>
<path fill="none" stroke="black" stroke-dasharray="5,2" d="M684.85,-175C553.2,-175 217.88,-175 217.88,-175 217.88,-175 217.88,-205.98 217.88,-205.98"/>
<polygon fill="black" stroke="black" points="214.38,-205.98 217.88,-215.98 221.38,-205.98 214.38,-205.98"/>
</g>
<!-- RaizModule -->
<g id="node8" class="node">
<title>RaizModule</title>
<polygon fill="#8dd3c7" stroke="black" points="109.71,-122 106.71,-126 85.71,-126 82.71,-122 24.29,-122 24.29,-86 109.71,-86 109.71,-122"/>
<text text-anchor="middle" x="67" y="-99.8" font-family="Times,serif" font-size="14.00">RaizModule</text>
</g>
<!-- RaizModule&#45;&gt;UsuarioModule -->
<g id="edge7" class="edge">
<title>RaizModule&#45;&gt;UsuarioModule</title>
<path fill="none" stroke="black" d="M89.16,-122.11C89.16,-141.34 89.16,-169 89.16,-169 89.16,-169 675.08,-169 675.08,-169"/>
<polygon fill="black" stroke="black" points="675.08,-172.5 685.08,-169 675.08,-165.5 675.08,-172.5"/>
</g>
</g>
</svg>
