<?xml version="1.0" encoding="UTF-8" standalone="no"?>
<!DOCTYPE svg PUBLIC "-//W3C//DTD SVG 1.1//EN"
 "http://www.w3.org/Graphics/SVG/1.1/DTD/svg11.dtd">
<!-- Generated by graphviz version 2.47.0 (20210316.0004)
 -->
<!-- Title: dependencies Pages: 1 -->
<svg width="1214pt" height="284pt"
 viewBox="0.00 0.00 1214.00 284.00" xmlns="http://www.w3.org/2000/svg" xmlns:xlink="http://www.w3.org/1999/xlink">
<g id="graph0" class="graph" transform="scale(1 1) rotate(0) translate(4 280)">
<title>dependencies</title>
<polygon fill="white" stroke="transparent" points="-4,4 -4,-280 1210,-280 1210,4 -4,4"/>
<text text-anchor="start" x="582.01" y="-42.4" font-family="sans-serif" font-weight="bold" font-size="14.00">Legend</text>
<polygon fill="#ffffb3" stroke="transparent" points="369,-10 369,-30 389,-30 389,-10 369,-10"/>
<text text-anchor="start" x="392.63" y="-15.4" font-family="sans-serif" font-size="14.00"> &#160;Declarations</text>
<polygon fill="#8dd3c7" stroke="transparent" points="482,-10 482,-30 502,-30 502,-10 482,-10"/>
<text text-anchor="start" x="505.73" y="-15.4" font-family="sans-serif" font-size="14.00"> &#160;Module</text>
<polygon fill="#80b1d3" stroke="transparent" points="568,-10 568,-30 588,-30 588,-10 568,-10"/>
<text text-anchor="start" x="591.78" y="-15.4" font-family="sans-serif" font-size="14.00"> &#160;Bootstrap</text>
<polygon fill="#fdb462" stroke="transparent" points="665,-10 665,-30 685,-30 685,-10 665,-10"/>
<text text-anchor="start" x="688.67" y="-15.4" font-family="sans-serif" font-size="14.00"> &#160;Providers</text>
<polygon fill="#fb8072" stroke="transparent" points="761,-10 761,-30 781,-30 781,-10 761,-10"/>
<text text-anchor="start" x="784.73" y="-15.4" font-family="sans-serif" font-size="14.00"> &#160;Exports</text>
<g id="clust1" class="cluster">
<title>cluster_QuadraModule</title>
<polygon fill="none" stroke="black" stroke-dasharray="1,5" points="8,-70 8,-268 1198,-268 1198,-70 8,-70"/>
</g>
<g id="clust9" class="cluster">
<title>cluster_QuadraModule_exports</title>
<polygon fill="none" stroke="black" points="192,-208 192,-260 1154,-260 1154,-208 192,-208"/>
</g>
<g id="clust8" class="cluster">
<title>cluster_QuadraModule_imports</title>
<polygon fill="none" stroke="black" points="966,-78 966,-130 1190,-130 1190,-78 966,-78"/>
</g>
<g id="clust2" class="cluster">
<title>cluster_QuadraModule_declarations</title>
<polygon fill="none" stroke="black" points="16,-78 16,-130 958,-130 958,-78 16,-78"/>
</g>
<!-- AtualizarQuadraComponent -->
<g id="node1" class="node">
<title>AtualizarQuadraComponent</title>
<polygon fill="#ffffb3" stroke="black" points="950.11,-122 775.89,-122 775.89,-86 950.11,-86 950.11,-122"/>
<text text-anchor="middle" x="863" y="-99.8" font-family="Times,serif" font-size="14.00">AtualizarQuadraComponent</text>
</g>
<!-- QuadraModule -->
<g id="node6" class="node">
<title>QuadraModule</title>
<polygon fill="#8dd3c7" stroke="black" points="722.25,-187 719.25,-191 698.25,-191 695.25,-187 621.75,-187 621.75,-151 722.25,-151 722.25,-187"/>
<text text-anchor="middle" x="672" y="-164.8" font-family="Times,serif" font-size="14.00">QuadraModule</text>
</g>
<!-- AtualizarQuadraComponent&#45;&gt;QuadraModule -->
<g id="edge1" class="edge">
<title>AtualizarQuadraComponent&#45;&gt;QuadraModule</title>
<path fill="none" stroke="black" d="M833.76,-122.24C833.76,-137.57 833.76,-157 833.76,-157 833.76,-157 732.3,-157 732.3,-157"/>
<polygon fill="black" stroke="black" points="732.3,-153.5 722.3,-157 732.3,-160.5 732.3,-153.5"/>
</g>
<!-- CadastroQuadraComponent -->
<g id="node2" class="node">
<title>CadastroQuadraComponent</title>
<polygon fill="#ffffb3" stroke="black" points="758.29,-122 585.71,-122 585.71,-86 758.29,-86 758.29,-122"/>
<text text-anchor="middle" x="672" y="-99.8" font-family="Times,serif" font-size="14.00">CadastroQuadraComponent</text>
</g>
<!-- CadastroQuadraComponent&#45;&gt;QuadraModule -->
<g id="edge2" class="edge">
<title>CadastroQuadraComponent&#45;&gt;QuadraModule</title>
<path fill="none" stroke="black" d="M672,-122.11C672,-122.11 672,-140.99 672,-140.99"/>
<polygon fill="black" stroke="black" points="668.5,-140.99 672,-150.99 675.5,-140.99 668.5,-140.99"/>
</g>
<!-- ExcluirQuadraComponent -->
<g id="node3" class="node">
<title>ExcluirQuadraComponent</title>
<polygon fill="#ffffb3" stroke="black" points="567.74,-122 404.26,-122 404.26,-86 567.74,-86 567.74,-122"/>
<text text-anchor="middle" x="486" y="-99.8" font-family="Times,serif" font-size="14.00">ExcluirQuadraComponent</text>
</g>
<!-- ExcluirQuadraComponent&#45;&gt;QuadraModule -->
<g id="edge3" class="edge">
<title>ExcluirQuadraComponent&#45;&gt;QuadraModule</title>
<path fill="none" stroke="black" d="M513.29,-122.24C513.29,-137.57 513.29,-157 513.29,-157 513.29,-157 611.35,-157 611.35,-157"/>
<polygon fill="black" stroke="black" points="611.35,-160.5 621.35,-157 611.35,-153.5 611.35,-160.5"/>
</g>
<!-- ListagemQuadraComponent -->
<g id="node4" class="node">
<title>ListagemQuadraComponent</title>
<polygon fill="#ffffb3" stroke="black" points="386.13,-122 211.87,-122 211.87,-86 386.13,-86 386.13,-122"/>
<text text-anchor="middle" x="299" y="-99.8" font-family="Times,serif" font-size="14.00">ListagemQuadraComponent</text>
</g>
<!-- ListagemQuadraComponent&#45;&gt;QuadraModule -->
<g id="edge4" class="edge">
<title>ListagemQuadraComponent&#45;&gt;QuadraModule</title>
<path fill="none" stroke="black" d="M380.02,-122.02C380.02,-139.37 380.02,-163 380.02,-163 380.02,-163 611.47,-163 611.47,-163"/>
<polygon fill="black" stroke="black" points="611.47,-166.5 621.47,-163 611.47,-159.5 611.47,-166.5"/>
</g>
<!-- UnidadeQuadraComponent -->
<g id="node5" class="node">
<title>UnidadeQuadraComponent</title>
<polygon fill="#ffffb3" stroke="black" points="193.96,-122 24.04,-122 24.04,-86 193.96,-86 193.96,-122"/>
<text text-anchor="middle" x="109" y="-99.8" font-family="Times,serif" font-size="14.00">UnidadeQuadraComponent</text>
</g>
<!-- UnidadeQuadraComponent&#45;&gt;QuadraModule -->
<g id="edge5" class="edge">
<title>UnidadeQuadraComponent&#45;&gt;QuadraModule</title>
<path fill="none" stroke="black" d="M109,-122.11C109,-141.34 109,-169 109,-169 109,-169 611.54,-169 611.54,-169"/>
<polygon fill="black" stroke="black" points="611.54,-172.5 621.54,-169 611.54,-165.5 611.54,-172.5"/>
</g>
<!-- AtualizarQuadraComponent  -->
<g id="node9" class="node">
<title>AtualizarQuadraComponent </title>
<polygon fill="#fb8072" stroke="black" points="1146.11,-252 967.89,-252 967.89,-216 1146.11,-216 1146.11,-252"/>
<text text-anchor="middle" x="1057" y="-229.8" font-family="Times,serif" font-size="14.00">AtualizarQuadraComponent </text>
</g>
<!-- QuadraModule&#45;&gt;AtualizarQuadraComponent  -->
<g id="edge8" class="edge">
<title>QuadraModule&#45;&gt;AtualizarQuadraComponent </title>
<path fill="none" stroke="black" stroke-dasharray="5,2" d="M722.41,-175C816.33,-175 1008.69,-175 1008.69,-175 1008.69,-175 1008.69,-205.98 1008.69,-205.98"/>
<polygon fill="black" stroke="black" points="1005.19,-205.98 1008.69,-215.98 1012.19,-205.98 1005.19,-205.98"/>
</g>
<!-- CadastroQuadraComponent  -->
<g id="node10" class="node">
<title>CadastroQuadraComponent </title>
<polygon fill="#fb8072" stroke="black" points="949.79,-252 774.21,-252 774.21,-216 949.79,-216 949.79,-252"/>
<text text-anchor="middle" x="862" y="-229.8" font-family="Times,serif" font-size="14.00">CadastroQuadraComponent </text>
</g>
<!-- QuadraModule&#45;&gt;CadastroQuadraComponent  -->
<g id="edge9" class="edge">
<title>QuadraModule&#45;&gt;CadastroQuadraComponent </title>
<path fill="none" stroke="black" stroke-dasharray="5,2" d="M722.43,-181C787.33,-181 891.83,-181 891.83,-181 891.83,-181 891.83,-205.76 891.83,-205.76"/>
<polygon fill="black" stroke="black" points="888.33,-205.76 891.83,-215.76 895.33,-205.76 888.33,-205.76"/>
</g>
<!-- ExcluirQuadraComponent  -->
<g id="node11" class="node">
<title>ExcluirQuadraComponent </title>
<polygon fill="#fb8072" stroke="black" points="755.74,-252 588.26,-252 588.26,-216 755.74,-216 755.74,-252"/>
<text text-anchor="middle" x="672" y="-229.8" font-family="Times,serif" font-size="14.00">ExcluirQuadraComponent </text>
</g>
<!-- QuadraModule&#45;&gt;ExcluirQuadraComponent  -->
<g id="edge10" class="edge">
<title>QuadraModule&#45;&gt;ExcluirQuadraComponent </title>
<path fill="none" stroke="black" stroke-dasharray="5,2" d="M672,-187.11C672,-187.11 672,-205.99 672,-205.99"/>
<polygon fill="black" stroke="black" points="668.5,-205.99 672,-215.99 675.5,-205.99 668.5,-205.99"/>
</g>
<!-- ListagemQuadraComponent  -->
<g id="node12" class="node">
<title>ListagemQuadraComponent </title>
<polygon fill="#fb8072" stroke="black" points="570.13,-252 391.87,-252 391.87,-216 570.13,-216 570.13,-252"/>
<text text-anchor="middle" x="481" y="-229.8" font-family="Times,serif" font-size="14.00">ListagemQuadraComponent </text>
</g>
<!-- QuadraModule&#45;&gt;ListagemQuadraComponent  -->
<g id="edge11" class="edge">
<title>QuadraModule&#45;&gt;ListagemQuadraComponent </title>
<path fill="none" stroke="black" stroke-dasharray="5,2" d="M621.72,-181C558.67,-181 458.71,-181 458.71,-181 458.71,-181 458.71,-205.76 458.71,-205.76"/>
<polygon fill="black" stroke="black" points="455.21,-205.76 458.71,-215.76 462.21,-205.76 455.21,-205.76"/>
</g>
<!-- UnidadeQuadraComponent  -->
<g id="node13" class="node">
<title>UnidadeQuadraComponent </title>
<polygon fill="#fb8072" stroke="black" points="373.96,-252 200.04,-252 200.04,-216 373.96,-216 373.96,-252"/>
<text text-anchor="middle" x="287" y="-229.8" font-family="Times,serif" font-size="14.00">UnidadeQuadraComponent </text>
</g>
<!-- QuadraModule&#45;&gt;UnidadeQuadraComponent  -->
<g id="edge12" class="edge">
<title>QuadraModule&#45;&gt;UnidadeQuadraComponent </title>
<path fill="none" stroke="black" stroke-dasharray="5,2" d="M621.63,-175C518.46,-175 292.71,-175 292.71,-175 292.71,-175 292.71,-205.98 292.71,-205.98"/>
<polygon fill="black" stroke="black" points="289.21,-205.98 292.71,-215.98 296.21,-205.98 289.21,-205.98"/>
</g>
<!-- RaizModule -->
<g id="node7" class="node">
<title>RaizModule</title>
<polygon fill="#8dd3c7" stroke="black" points="1181.71,-122 1178.71,-126 1157.71,-126 1154.71,-122 1096.29,-122 1096.29,-86 1181.71,-86 1181.71,-122"/>
<text text-anchor="middle" x="1139" y="-99.8" font-family="Times,serif" font-size="14.00">RaizModule</text>
</g>
<!-- RaizModule&#45;&gt;QuadraModule -->
<g id="edge6" class="edge">
<title>RaizModule&#45;&gt;QuadraModule</title>
<path fill="none" stroke="black" d="M1121.23,-122.11C1121.23,-141.34 1121.23,-169 1121.23,-169 1121.23,-169 732.66,-169 732.66,-169"/>
<polygon fill="black" stroke="black" points="732.66,-165.5 722.66,-169 732.66,-172.5 732.66,-165.5"/>
</g>
<!-- UsuarioModule -->
<g id="node8" class="node">
<title>UsuarioModule</title>
<polygon fill="#8dd3c7" stroke="black" points="1077.87,-122 1074.87,-126 1053.87,-126 1050.87,-122 974.13,-122 974.13,-86 1077.87,-86 1077.87,-122"/>
<text text-anchor="middle" x="1026" y="-99.8" font-family="Times,serif" font-size="14.00">UsuarioModule</text>
</g>
<!-- UsuarioModule&#45;&gt;QuadraModule -->
<g id="edge7" class="edge">
<title>UsuarioModule&#45;&gt;QuadraModule</title>
<path fill="none" stroke="black" d="M1043.31,-122.02C1043.31,-139.37 1043.31,-163 1043.31,-163 1043.31,-163 732.46,-163 732.46,-163"/>
<polygon fill="black" stroke="black" points="732.46,-159.5 722.46,-163 732.46,-166.5 732.46,-159.5"/>
</g>
</g>
</svg>
