<?xml version="1.0" encoding="UTF-8" standalone="no"?>
<!DOCTYPE svg PUBLIC "-//W3C//DTD SVG 1.1//EN"
 "http://www.w3.org/Graphics/SVG/1.1/DTD/svg11.dtd">
<!-- Generated by graphviz version 2.47.0 (20210316.0004)
 -->
<!-- Title: dependencies Pages: 1 -->
<svg width="928pt" height="284pt"
 viewBox="0.00 0.00 928.00 284.00" xmlns="http://www.w3.org/2000/svg" xmlns:xlink="http://www.w3.org/1999/xlink">
<g id="graph0" class="graph" transform="scale(1 1) rotate(0) translate(4 280)">
<title>dependencies</title>
<polygon fill="white" stroke="transparent" points="-4,4 -4,-280 924,-280 924,4 -4,4"/>
<text text-anchor="start" x="439.01" y="-42.4" font-family="sans-serif" font-weight="bold" font-size="14.00">Legend</text>
<polygon fill="#ffffb3" stroke="transparent" points="226,-10 226,-30 246,-30 246,-10 226,-10"/>
<text text-anchor="start" x="249.63" y="-15.4" font-family="sans-serif" font-size="14.00"> &#160;Declarations</text>
<polygon fill="#8dd3c7" stroke="transparent" points="339,-10 339,-30 359,-30 359,-10 339,-10"/>
<text text-anchor="start" x="362.73" y="-15.4" font-family="sans-serif" font-size="14.00"> &#160;Module</text>
<polygon fill="#80b1d3" stroke="transparent" points="425,-10 425,-30 445,-30 445,-10 425,-10"/>
<text text-anchor="start" x="448.78" y="-15.4" font-family="sans-serif" font-size="14.00"> &#160;Bootstrap</text>
<polygon fill="#fdb462" stroke="transparent" points="522,-10 522,-30 542,-30 542,-10 522,-10"/>
<text text-anchor="start" x="545.67" y="-15.4" font-family="sans-serif" font-size="14.00"> &#160;Providers</text>
<polygon fill="#fb8072" stroke="transparent" points="618,-10 618,-30 638,-30 638,-10 618,-10"/>
<text text-anchor="start" x="641.73" y="-15.4" font-family="sans-serif" font-size="14.00"> &#160;Exports</text>
<g id="clust1" class="cluster">
<title>cluster_RaizModule</title>
<polygon fill="none" stroke="black" stroke-dasharray="1,5" points="8,-70 8,-268 912,-268 912,-70 8,-70"/>
</g>
<g id="clust2" class="cluster">
<title>cluster_RaizModule_declarations</title>
<polygon fill="none" stroke="black" points="29,-78 29,-130 896,-130 896,-78 29,-78"/>
</g>
<g id="clust10" class="cluster">
<title>cluster_RaizModule_exports</title>
<polygon fill="none" stroke="black" points="16,-208 16,-260 904,-260 904,-208 16,-208"/>
</g>
<!-- AlertaComponent -->
<g id="node1" class="node">
<title>AlertaComponent</title>
<polygon fill="#ffffb3" stroke="black" points="888.31,-122 771.69,-122 771.69,-86 888.31,-86 888.31,-122"/>
<text text-anchor="middle" x="830" y="-99.8" font-family="Times,serif" font-size="14.00">AlertaComponent</text>
</g>
<!-- RaizModule -->
<g id="node7" class="node">
<title>RaizModule</title>
<polygon fill="#8dd3c7" stroke="black" points="458.71,-187 455.71,-191 434.71,-191 431.71,-187 373.29,-187 373.29,-151 458.71,-151 458.71,-187"/>
<text text-anchor="middle" x="416" y="-164.8" font-family="Times,serif" font-size="14.00">RaizModule</text>
</g>
<!-- AlertaComponent&#45;&gt;RaizModule -->
<g id="edge1" class="edge">
<title>AlertaComponent&#45;&gt;RaizModule</title>
<path fill="none" stroke="black" d="M850.8,-122.22C850.8,-140.83 850.8,-167 850.8,-167 850.8,-167 468.88,-167 468.88,-167"/>
<polygon fill="black" stroke="black" points="468.88,-163.5 458.88,-167 468.88,-170.5 468.88,-163.5"/>
</g>
<!-- FooterComponent -->
<g id="node2" class="node">
<title>FooterComponent</title>
<polygon fill="#ffffb3" stroke="black" points="753.88,-122 636.12,-122 636.12,-86 753.88,-86 753.88,-122"/>
<text text-anchor="middle" x="695" y="-99.8" font-family="Times,serif" font-size="14.00">FooterComponent</text>
</g>
<!-- FooterComponent&#45;&gt;RaizModule -->
<g id="edge2" class="edge">
<title>FooterComponent&#45;&gt;RaizModule</title>
<path fill="none" stroke="black" d="M714.73,-122.03C714.73,-139.06 714.73,-162 714.73,-162 714.73,-162 468.8,-162 468.8,-162"/>
<polygon fill="black" stroke="black" points="468.8,-158.5 458.8,-162 468.8,-165.5 468.8,-158.5"/>
</g>
<!-- HomeComponent -->
<g id="node3" class="node">
<title>HomeComponent</title>
<polygon fill="#ffffb3" stroke="black" points="617.55,-122 502.45,-122 502.45,-86 617.55,-86 617.55,-122"/>
<text text-anchor="middle" x="560" y="-99.8" font-family="Times,serif" font-size="14.00">HomeComponent</text>
</g>
<!-- HomeComponent&#45;&gt;RaizModule -->
<g id="edge3" class="edge">
<title>HomeComponent&#45;&gt;RaizModule</title>
<path fill="none" stroke="black" d="M540.74,-122.24C540.74,-137.57 540.74,-157 540.74,-157 540.74,-157 468.93,-157 468.93,-157"/>
<polygon fill="black" stroke="black" points="468.93,-153.5 458.93,-157 468.93,-160.5 468.93,-153.5"/>
</g>
<!-- NavLateralComponent -->
<g id="node4" class="node">
<title>NavLateralComponent</title>
<polygon fill="#ffffb3" stroke="black" points="484.29,-122 339.71,-122 339.71,-86 484.29,-86 484.29,-122"/>
<text text-anchor="middle" x="412" y="-99.8" font-family="Times,serif" font-size="14.00">NavLateralComponent</text>
</g>
<!-- NavLateralComponent&#45;&gt;RaizModule -->
<g id="edge4" class="edge">
<title>NavLateralComponent&#45;&gt;RaizModule</title>
<path fill="none" stroke="black" d="M416,-122.11C416,-122.11 416,-140.99 416,-140.99"/>
<polygon fill="black" stroke="black" points="412.5,-140.99 416,-150.99 419.5,-140.99 412.5,-140.99"/>
</g>
<!-- NavSuperiorComponent -->
<g id="node5" class="node">
<title>NavSuperiorComponent</title>
<polygon fill="#ffffb3" stroke="black" points="321.36,-122 168.64,-122 168.64,-86 321.36,-86 321.36,-122"/>
<text text-anchor="middle" x="245" y="-99.8" font-family="Times,serif" font-size="14.00">NavSuperiorComponent</text>
</g>
<!-- NavSuperiorComponent&#45;&gt;RaizModule -->
<g id="edge5" class="edge">
<title>NavSuperiorComponent&#45;&gt;RaizModule</title>
<path fill="none" stroke="black" d="M266.98,-122.01C266.98,-138.05 266.98,-159 266.98,-159 266.98,-159 363.3,-159 363.3,-159"/>
<polygon fill="black" stroke="black" points="363.3,-162.5 373.3,-159 363.3,-155.5 363.3,-162.5"/>
</g>
<!-- SobreComponent -->
<g id="node6" class="node">
<title>SobreComponent</title>
<polygon fill="#ffffb3" stroke="black" points="150.99,-122 37.01,-122 37.01,-86 150.99,-86 150.99,-122"/>
<text text-anchor="middle" x="94" y="-99.8" font-family="Times,serif" font-size="14.00">SobreComponent</text>
</g>
<!-- SobreComponent&#45;&gt;RaizModule -->
<g id="edge6" class="edge">
<title>SobreComponent&#45;&gt;RaizModule</title>
<path fill="none" stroke="black" d="M146.37,-122.27C146.37,-140.56 146.37,-166 146.37,-166 146.37,-166 363.28,-166 363.28,-166"/>
<polygon fill="black" stroke="black" points="363.28,-169.5 373.28,-166 363.28,-162.5 363.28,-169.5"/>
</g>
<!-- AlertaComponent  -->
<g id="node8" class="node">
<title>AlertaComponent </title>
<polygon fill="#fb8072" stroke="black" points="895.81,-252 776.19,-252 776.19,-216 895.81,-216 895.81,-252"/>
<text text-anchor="middle" x="836" y="-229.8" font-family="Times,serif" font-size="14.00">AlertaComponent </text>
</g>
<!-- RaizModule&#45;&gt;AlertaComponent  -->
<g id="edge7" class="edge">
<title>RaizModule&#45;&gt;AlertaComponent </title>
<path fill="none" stroke="black" stroke-dasharray="5,2" d="M458.91,-172C561.68,-172 813.45,-172 813.45,-172 813.45,-172 813.45,-205.73 813.45,-205.73"/>
<polygon fill="black" stroke="black" points="809.95,-205.73 813.45,-215.73 816.95,-205.73 809.95,-205.73"/>
</g>
<!-- FooterComponent  -->
<g id="node9" class="node">
<title>FooterComponent </title>
<polygon fill="#fb8072" stroke="black" points="757.88,-252 636.12,-252 636.12,-216 757.88,-216 757.88,-252"/>
<text text-anchor="middle" x="697" y="-229.8" font-family="Times,serif" font-size="14.00">FooterComponent </text>
</g>
<!-- RaizModule&#45;&gt;FooterComponent  -->
<g id="edge8" class="edge">
<title>RaizModule&#45;&gt;FooterComponent </title>
<path fill="none" stroke="black" stroke-dasharray="5,2" d="M458.85,-177C532.57,-177 675.52,-177 675.52,-177 675.52,-177 675.52,-205.96 675.52,-205.96"/>
<polygon fill="black" stroke="black" points="672.02,-205.96 675.52,-215.96 679.02,-205.96 672.02,-205.96"/>
</g>
<!-- HomeComponent  -->
<g id="node10" class="node">
<title>HomeComponent </title>
<polygon fill="#fb8072" stroke="black" points="618.54,-252 499.46,-252 499.46,-216 618.54,-216 618.54,-252"/>
<text text-anchor="middle" x="559" y="-229.8" font-family="Times,serif" font-size="14.00">HomeComponent </text>
</g>
<!-- RaizModule&#45;&gt;HomeComponent  -->
<g id="edge9" class="edge">
<title>RaizModule&#45;&gt;HomeComponent </title>
<path fill="none" stroke="black" stroke-dasharray="5,2" d="M458.89,-182C507.26,-182 579.26,-182 579.26,-182 579.26,-182 579.26,-205.81 579.26,-205.81"/>
<polygon fill="black" stroke="black" points="575.76,-205.81 579.26,-215.81 582.76,-205.81 575.76,-205.81"/>
</g>
<!-- NavLateralComponent  -->
<g id="node11" class="node">
<title>NavLateralComponent </title>
<polygon fill="#fb8072" stroke="black" points="481.79,-252 334.21,-252 334.21,-216 481.79,-216 481.79,-252"/>
<text text-anchor="middle" x="408" y="-229.8" font-family="Times,serif" font-size="14.00">NavLateralComponent </text>
</g>
<!-- RaizModule&#45;&gt;NavLateralComponent  -->
<g id="edge10" class="edge">
<title>RaizModule&#45;&gt;NavLateralComponent </title>
<path fill="none" stroke="black" stroke-dasharray="5,2" d="M416,-187.11C416,-187.11 416,-205.99 416,-205.99"/>
<polygon fill="black" stroke="black" points="412.5,-205.99 416,-215.99 419.5,-205.99 412.5,-205.99"/>
</g>
<!-- NavSuperiorComponent  -->
<g id="node12" class="node">
<title>NavSuperiorComponent </title>
<polygon fill="#fb8072" stroke="black" points="316.36,-252 159.64,-252 159.64,-216 316.36,-216 316.36,-252"/>
<text text-anchor="middle" x="238" y="-229.8" font-family="Times,serif" font-size="14.00">NavSuperiorComponent </text>
</g>
<!-- RaizModule&#45;&gt;NavSuperiorComponent  -->
<g id="edge11" class="edge">
<title>RaizModule&#45;&gt;NavSuperiorComponent </title>
<path fill="none" stroke="black" stroke-dasharray="5,2" d="M372.99,-180C314.69,-180 217.77,-180 217.77,-180 217.77,-180 217.77,-205.72 217.77,-205.72"/>
<polygon fill="black" stroke="black" points="214.27,-205.72 217.77,-215.72 221.27,-205.72 214.27,-205.72"/>
</g>
<!-- SobreComponent  -->
<g id="node13" class="node">
<title>SobreComponent </title>
<polygon fill="#fb8072" stroke="black" points="141.99,-252 24.01,-252 24.01,-216 141.99,-216 141.99,-252"/>
<text text-anchor="middle" x="83" y="-229.8" font-family="Times,serif" font-size="14.00">SobreComponent </text>
</g>
<!-- RaizModule&#45;&gt;SobreComponent  -->
<g id="edge12" class="edge">
<title>RaizModule&#45;&gt;SobreComponent </title>
<path fill="none" stroke="black" stroke-dasharray="5,2" d="M373.3,-173C284.76,-173 89.38,-173 89.38,-173 89.38,-173 89.38,-205.7 89.38,-205.7"/>
<polygon fill="black" stroke="black" points="85.88,-205.7 89.38,-215.7 92.88,-205.7 85.88,-205.7"/>
</g>
</g>
</svg>
