<?xml version="1.0" encoding="UTF-8" standalone="no"?>
<!DOCTYPE svg PUBLIC "-//W3C//DTD SVG 1.1//EN"
 "http://www.w3.org/Graphics/SVG/1.1/DTD/svg11.dtd">
<!-- Generated by graphviz version 2.47.0 (20210316.0004)
 -->
<!-- Title: dependencies Pages: 1 -->
<svg width="800pt" height="284pt"
 viewBox="0.00 0.00 800.00 284.00" xmlns="http://www.w3.org/2000/svg" xmlns:xlink="http://www.w3.org/1999/xlink">
<g id="graph0" class="graph" transform="scale(1 1) rotate(0) translate(4 280)">
<title>dependencies</title>
<polygon fill="white" stroke="transparent" points="-4,4 -4,-280 796,-280 796,4 -4,4"/>
<text text-anchor="start" x="375.01" y="-42.4" font-family="sans-serif" font-weight="bold" font-size="14.00">Legend</text>
<polygon fill="#ffffb3" stroke="transparent" points="162,-10 162,-30 182,-30 182,-10 162,-10"/>
<text text-anchor="start" x="185.63" y="-15.4" font-family="sans-serif" font-size="14.00"> &#160;Declarations</text>
<polygon fill="#8dd3c7" stroke="transparent" points="275,-10 275,-30 295,-30 295,-10 275,-10"/>
<text text-anchor="start" x="298.73" y="-15.4" font-family="sans-serif" font-size="14.00"> &#160;Module</text>
<polygon fill="#80b1d3" stroke="transparent" points="361,-10 361,-30 381,-30 381,-10 361,-10"/>
<text text-anchor="start" x="384.78" y="-15.4" font-family="sans-serif" font-size="14.00"> &#160;Bootstrap</text>
<polygon fill="#fdb462" stroke="transparent" points="458,-10 458,-30 478,-30 478,-10 458,-10"/>
<text text-anchor="start" x="481.67" y="-15.4" font-family="sans-serif" font-size="14.00"> &#160;Providers</text>
<polygon fill="#fb8072" stroke="transparent" points="554,-10 554,-30 574,-30 574,-10 554,-10"/>
<text text-anchor="start" x="577.73" y="-15.4" font-family="sans-serif" font-size="14.00"> &#160;Exports</text>
<g id="clust1" class="cluster">
<title>cluster_AppModule</title>
<polygon fill="none" stroke="black" stroke-dasharray="1,5" points="8,-70 8,-268 784,-268 784,-70 8,-70"/>
</g>
<g id="clust2" class="cluster">
<title>cluster_AppModule_declarations</title>
<polygon fill="none" stroke="black" points="654,-78 654,-130 776,-130 776,-78 654,-78"/>
</g>
<g id="clust4" class="cluster">
<title>cluster_AppModule_imports</title>
<polygon fill="none" stroke="black" points="16,-78 16,-130 646,-130 646,-78 16,-78"/>
</g>
<g id="clust6" class="cluster">
<title>cluster_AppModule_bootstrap</title>
<polygon fill="none" stroke="black" points="303,-208 303,-260 427,-260 427,-208 303,-208"/>
</g>
<!-- AppComponent -->
<g id="node1" class="node">
<title>AppComponent</title>
<polygon fill="#ffffb3" stroke="black" points="767.94,-122 662.06,-122 662.06,-86 767.94,-86 767.94,-122"/>
<text text-anchor="middle" x="715" y="-99.8" font-family="Times,serif" font-size="14.00">AppComponent</text>
</g>
<!-- AppModule -->
<g id="node2" class="node">
<title>AppModule</title>
<polygon fill="#8dd3c7" stroke="black" points="406.66,-187 403.66,-191 382.66,-191 379.66,-187 323.34,-187 323.34,-151 406.66,-151 406.66,-187"/>
<text text-anchor="middle" x="365" y="-164.8" font-family="Times,serif" font-size="14.00">AppModule</text>
</g>
<!-- AppComponent&#45;&gt;AppModule -->
<g id="edge1" class="edge">
<title>AppComponent&#45;&gt;AppModule</title>
<path fill="none" stroke="black" d="M715,-122.28C715,-143.32 715,-175 715,-175 715,-175 416.87,-175 416.87,-175"/>
<polygon fill="black" stroke="black" points="416.87,-171.5 406.87,-175 416.87,-178.5 416.87,-171.5"/>
</g>
<!-- AppComponent  -->
<g id="node8" class="node">
<title>AppComponent </title>
<polygon fill="#80b1d3" stroke="black" points="419.44,-252 310.56,-252 310.56,-216 419.44,-216 419.44,-252"/>
<text text-anchor="middle" x="365" y="-229.8" font-family="Times,serif" font-size="14.00">AppComponent </text>
</g>
<!-- AppModule&#45;&gt;AppComponent  -->
<g id="edge7" class="edge">
<title>AppModule&#45;&gt;AppComponent </title>
<path fill="none" stroke="black" stroke-dasharray="1,5" d="M365,-187.11C365,-187.11 365,-205.99 365,-205.99"/>
<polygon fill="black" stroke="black" points="361.5,-205.99 365,-215.99 368.5,-205.99 361.5,-205.99"/>
</g>
<!-- AppRoutingModule -->
<g id="node3" class="node">
<title>AppRoutingModule</title>
<polygon fill="#8dd3c7" stroke="black" points="638.27,-122 635.27,-126 614.27,-126 611.27,-122 509.73,-122 509.73,-86 638.27,-86 638.27,-122"/>
<text text-anchor="middle" x="574" y="-99.8" font-family="Times,serif" font-size="14.00">AppRoutingModule</text>
</g>
<!-- AppRoutingModule&#45;&gt;AppModule -->
<g id="edge2" class="edge">
<title>AppRoutingModule&#45;&gt;AppModule</title>
<path fill="none" stroke="black" d="M574,-122.02C574,-139.37 574,-163 574,-163 574,-163 416.79,-163 416.79,-163"/>
<polygon fill="black" stroke="black" points="416.79,-159.5 406.79,-163 416.79,-166.5 416.79,-159.5"/>
</g>
<!-- InfoQuadraModule -->
<g id="node4" class="node">
<title>InfoQuadraModule</title>
<polygon fill="#8dd3c7" stroke="black" points="492.07,-122 489.07,-126 468.07,-126 465.07,-122 367.93,-122 367.93,-86 492.07,-86 492.07,-122"/>
<text text-anchor="middle" x="430" y="-99.8" font-family="Times,serif" font-size="14.00">InfoQuadraModule</text>
</g>
<!-- InfoQuadraModule&#45;&gt;AppModule -->
<g id="edge3" class="edge">
<title>InfoQuadraModule&#45;&gt;AppModule</title>
<path fill="none" stroke="black" d="M387.4,-122.11C387.4,-122.11 387.4,-140.99 387.4,-140.99"/>
<polygon fill="black" stroke="black" points="383.9,-140.99 387.4,-150.99 390.9,-140.99 383.9,-140.99"/>
</g>
<!-- QuadraModule -->
<g id="node5" class="node">
<title>QuadraModule</title>
<polygon fill="#8dd3c7" stroke="black" points="350.25,-122 347.25,-126 326.25,-126 323.25,-122 249.75,-122 249.75,-86 350.25,-86 350.25,-122"/>
<text text-anchor="middle" x="300" y="-99.8" font-family="Times,serif" font-size="14.00">QuadraModule</text>
</g>
<!-- QuadraModule&#45;&gt;AppModule -->
<g id="edge4" class="edge">
<title>QuadraModule&#45;&gt;AppModule</title>
<path fill="none" stroke="black" d="M336.77,-122.11C336.77,-122.11 336.77,-140.99 336.77,-140.99"/>
<polygon fill="black" stroke="black" points="333.27,-140.99 336.77,-150.99 340.27,-140.99 333.27,-140.99"/>
</g>
<!-- RaizModule -->
<g id="node6" class="node">
<title>RaizModule</title>
<polygon fill="#8dd3c7" stroke="black" points="231.71,-122 228.71,-126 207.71,-126 204.71,-122 146.29,-122 146.29,-86 231.71,-86 231.71,-122"/>
<text text-anchor="middle" x="189" y="-99.8" font-family="Times,serif" font-size="14.00">RaizModule</text>
</g>
<!-- RaizModule&#45;&gt;AppModule -->
<g id="edge5" class="edge">
<title>RaizModule&#45;&gt;AppModule</title>
<path fill="none" stroke="black" d="M189,-122.02C189,-139.37 189,-163 189,-163 189,-163 313.29,-163 313.29,-163"/>
<polygon fill="black" stroke="black" points="313.29,-166.5 323.29,-163 313.29,-159.5 313.29,-166.5"/>
</g>
<!-- UsuarioModule -->
<g id="node7" class="node">
<title>UsuarioModule</title>
<polygon fill="#8dd3c7" stroke="black" points="127.87,-122 124.87,-126 103.87,-126 100.87,-122 24.13,-122 24.13,-86 127.87,-86 127.87,-122"/>
<text text-anchor="middle" x="76" y="-99.8" font-family="Times,serif" font-size="14.00">UsuarioModule</text>
</g>
<!-- UsuarioModule&#45;&gt;AppModule -->
<g id="edge6" class="edge">
<title>UsuarioModule&#45;&gt;AppModule</title>
<path fill="none" stroke="black" d="M76,-122.28C76,-143.32 76,-175 76,-175 76,-175 313.29,-175 313.29,-175"/>
<polygon fill="black" stroke="black" points="313.29,-178.5 323.29,-175 313.29,-171.5 313.29,-178.5"/>
</g>
</g>
</svg>
